<?xml version="1.0" encoding="UTF-8"?>
<svg width="900px" height="110px" viewBox="0 0 900 110" version="1.1" xmlns="http://www.w3.org/2000/svg" xmlns:xlink="http://www.w3.org/1999/xlink">
    <title>logo_white</title>
    <defs>
        <linearGradient x1="98.4603775%" y1="50%" x2="0%" y2="50%" id="linearGradient-1">
            <stop stop-color="#05FF51" offset="0%"></stop>
            <stop stop-color="#0284EC" offset="59.991327%"></stop>
            <stop stop-color="#0175FF" offset="100%"></stop>
        </linearGradient>
        <linearGradient x1="98.4603775%" y1="50%" x2="0%" y2="50%" id="linearGradient-2">
            <stop stop-color="#05FF51" offset="0%"></stop>
            <stop stop-color="#0284EC" offset="59.991327%"></stop>
            <stop stop-color="#0175FF" offset="100%"></stop>
        </linearGradient>
    </defs>
    <g id="logo_fin" stroke="none" stroke-width="1" fill="none" fill-rule="evenodd">
        <g id="画板" transform="translate(-33, -1012)">
            <g id="logo_white" transform="translate(33, 1012)">
                <g id="编组-6" transform="translate(83.1892, 55) scale(1, -1) translate(-83.1892, -55)">
                    <path d="M1.24170939,72.0579313 C-3.51563455,94.599451 5.99905333,105.153685 19.5241985,105.153685 C33.0493436,105.153685 40.8435862,80.4289107 40.8435862,80.4289107 C40.8435862,80.4289107 61.3983633,29.9741169 70.1905485,34.1419362 C78.9827337,38.3097554 55.9008061,71.7535852 74.3852653,75.0581232 C92.8697245,78.3626612 105.003536,44.5827364 108.131057,40.077873 C111.258577,35.5730096 117.283466,30.6981553 121.126548,34.1419362 C124.969631,37.585717 125.456364,39.5262842 124.206871,45.1530442 C122.957378,50.7798041 104.675615,84.8386722 103.516203,93.4991629 C102.356791,102.159654 103.960618,110 115.52558,110 C127.090542,110 140.528344,104.540668 152.10339,82.2662556 C163.678435,59.9918434 166.378378,37.3480346 166.378378,34.1419362 C166.378378,30.9358377 165.89825,13.0177158 156.072426,10.1827302 C146.246603,7.34774454 134.991171,10.1827302 134.991171,10.1827302 C134.991171,10.1827302 128.574391,12.7445085 124.206871,10.1827302 C119.839352,7.62095185 115.52558,0 103.516203,0 C91.5068267,0 82.2191994,7.38033851 79.1158589,10.1827302 C77.0469652,12.0509913 74.0718618,12.0509913 70.1905485,10.1827302 C62.9691558,5.08041052 57.6499732,2.5292507 54.2330008,2.5292507 C49.1075421,2.5292507 37.952459,3.57370069 28.7383287,10.1827302 C19.5241985,16.7917596 5.99905333,49.5164116 1.24170939,72.0579313 Z" id="路径-2" fill="url(#linearGradient-1)"></path>
                    <path d="M56.993702,83.2660865 L83.6037612,83.2844188 C90.1166274,83.2889057 95.39522,88.567523 95.3996766,95.0803892 C95.4041252,101.581705 90.1373739,106.855669 83.6360581,106.860118 C83.6306699,106.860121 83.6252816,106.860121 83.6198933,106.860118 L57.0098342,106.841785 C50.496968,106.837298 45.2183753,101.558681 45.2139188,95.0458149 C45.2094701,88.5444992 50.4762215,83.2705351 56.9775372,83.2660864 C56.9829255,83.2660827 56.9883138,83.2660828 56.993702,83.2660865 Z" id="矩形" fill="url(#linearGradient-2)" transform="translate(70.3068, 95.0631) rotate(-356) translate(-70.3068, -95.0631)"></path>
                </g>
                <g id="The-Web-3" transform="translate(186.8108, 3.8938)" fill="#FFFFFF" fill-rule="nonzero">
                    <path d="M79.201018,20.6482924 C79.2313206,20.6160454 79.2616233,20.5837984 79.2905493,20.5515514 C79.3828338,20.4506022 79.472363,20.3468483 79.5618921,20.2430943 C79.5977034,20.2024353 79.632138,20.1603727 79.6679493,20.1183102 C79.7492145,20.0201658 79.8304797,19.9192166 79.9089916,19.8168661 C79.9475582,19.7677928 79.9861248,19.7187195 80.0233148,19.6682449 C80.0976927,19.5715017 80.1693173,19.4719538 80.2395631,19.372406 C80.2795064,19.3149206 80.3208283,19.2574352 80.3593949,19.1999498 C80.4255088,19.1032067 80.4902461,19.0064635 80.552228,18.9083191 C80.59355,18.8438229 80.6348719,18.7793268 80.6748152,18.7148306 C80.7326651,18.6194909 80.790515,18.5227477 80.8469883,18.4260046 C80.8869315,18.3559011 80.9268747,18.2857976 80.966818,18.2142928 C81.0191593,18.1189531 81.0701218,18.0236134 81.1197078,17.9268702 C81.159651,17.8511594 81.196841,17.7754486 81.2354076,17.6983343 C81.2822382,17.6043959 81.3276921,17.5104575 81.3717694,17.4137143 C81.4089594,17.332394 81.4447707,17.2510737 81.4805819,17.1683521 C81.5219039,17.0744137 81.5618471,16.9804753 81.6004137,16.8851356 C81.6348484,16.798208 81.6679063,16.7112803 81.702341,16.6229492 C81.7367756,16.5304121 81.7712102,16.437875 81.8056448,16.3439366 C81.8373241,16.2513995 81.8676267,16.1588624 81.8979294,16.0663252 C81.928232,15.9737881 81.957158,15.881251 81.986084,15.7887139 C82.01501,15.6905694 82.0411807,15.592425 82.0673513,15.4942805 C82.0921432,15.4031468 82.1169352,15.3134145 82.1403504,15.2208774 C82.1651424,15.1185269 82.187181,15.0147729 82.2105963,14.911019 C82.2298796,14.8212866 82.2505396,14.7315542 82.2684462,14.6418219 C82.2904849,14.5338619 82.3083916,14.4245006 82.3262982,14.3151394 C82.3414496,14.2282117 82.3579775,14.1412841 82.3703735,14.052953 C82.3869014,13.936581 82.4006761,13.8188076 82.4144508,13.7010343 C82.4240935,13.6183127 82.4351128,13.5369924 82.4433768,13.4542708 C82.4557728,13.3210746 82.4640367,13.1864749 82.4736794,13.0518753 C82.4778114,12.9831731 82.4846988,12.9158744 82.4874541,12.8471722 C82.4984734,12.642469 82.5026054,12.4377659 82.5026054,12.2316615 C82.5026054,12.0269584 82.4984734,11.82506 82.4874541,11.6231616 C82.4846988,11.5558629 82.4778114,11.4899654 82.4736794,11.424068 C82.4654155,11.2894683 82.4571515,11.1562721 82.4433768,11.0230759 C82.4364894,10.9431569 82.4254701,10.8646414 82.4158274,10.7847224 C82.4020527,10.666949 82.3896568,10.5491757 82.3717501,10.4314023 C82.3593541,10.345876 82.3455794,10.2631544 82.3304281,10.1790293 C82.3125214,10.0682668 82.2946148,9.9575042 82.2725761,9.84954423 C82.2560482,9.76261659 82.2381415,9.67709025 82.2188582,9.59016261 C82.1954429,9.48500738 82.1734042,9.38125345 82.1472336,9.27609822 C82.1265737,9.18917058 82.1031584,9.10224294 82.0797431,9.0153153 C82.0535724,8.91436611 82.0260251,8.81481821 81.9970991,8.71527032 C81.9709285,8.62693924 81.9433812,8.5400116 81.9158339,8.45308396 C81.8855313,8.35634081 81.853852,8.26100109 81.820794,8.16566138 C81.7904914,8.0773303 81.7588122,7.99040266 81.7271329,7.90347502 C81.6926983,7.81234134 81.656887,7.71980422 81.6210758,7.63007185 C81.5852645,7.54174077 81.5494533,7.45340969 81.5122633,7.36648205 C81.4750733,7.27955441 81.4365067,7.19402807 81.3979401,7.10710043 C81.3579969,7.01876935 81.3166749,6.93043827 81.2753529,6.84351063 C81.2354097,6.76219033 81.1940877,6.68227133 81.1541445,6.60235233 C81.1073139,6.51261995 81.0632366,6.42148627 81.0150273,6.33315519 C80.975084,6.26024697 80.9337621,6.18874218 80.8924401,6.11723739 C80.8387222,6.02329898 80.7863809,5.92936056 80.7312863,5.83822689 C80.6954751,5.77934021 80.6582851,5.72185484 80.6210951,5.66436947 C80.5577345,5.56201897 80.4943739,5.45966848 80.4268813,5.35871929 C80.4227493,5.35170851 80.4172407,5.34469774 80.411732,5.33768696 C80.1266124,4.91286 79.8153241,4.50906323 79.4806206,4.12489535 C79.462714,4.10386516 79.4475626,4.08423627 79.429656,4.06320608 C79.3346161,3.95524611 79.2354442,3.85009088 79.1362723,3.74493565 C79.108725,3.71689468 79.0811778,3.68604897 79.0522518,3.65660457 C78.9558352,3.55565537 78.8552867,3.45891222 78.7547382,3.36076777 C78.723059,3.32992206 78.6927563,3.29907635 78.6596983,3.26963195 C78.5591498,3.17288879 78.455846,3.08035168 78.3511655,2.98781456 C78.3181075,2.95837015 78.2850495,2.92892575 78.2519915,2.90088478 C78.1459323,2.80834767 78.0371198,2.72001659 77.9283073,2.63168551 C77.8952493,2.60504584 77.8621913,2.57840617 77.8291333,2.55316994 C77.7175655,2.46483887 77.6032423,2.37931253 77.4889191,2.29518749 C77.4572399,2.27135256 77.4255606,2.24891893 77.3925026,2.2264853 C77.2740474,2.14095896 77.1542156,2.05823736 77.0316284,1.97691706 C77.0040812,1.95868946 76.9751552,1.94046187 76.9476079,1.92083298 C76.8195121,1.83811138 76.6900376,1.75679108 76.5605631,1.67967681 C76.5385244,1.6670587 76.5164858,1.65444059 76.4958258,1.64182247 C76.3567107,1.55910087 76.2162169,1.48058531 76.0729698,1.40347104 C76.0633271,1.39926501 76.0536844,1.39365767 76.0440417,1.38945163 C74.3829159,0.503342525 72.4945203,0 70.4876696,0 L12.0149274,0 C11.284913,0 10.57005,0.0715047868 9.87584894,0.197690208 C9.86345298,0.200494946 9.85105702,0.201896246 9.83866106,0.204700985 C9.09349535,0.343506659 8.37312367,0.552415821 7.68305461,0.824417694 C7.67479064,0.827222432 7.66652667,0.830027171 7.6582627,0.834233209 C7.43374829,0.922564288 7.21198925,1.01930744 6.99436219,1.12025663 C6.98885358,1.12306137 6.98472159,1.12446267 6.9805896,1.12726741 C6.31118048,1.4413318 5.67620598,1.81708547 5.08117472,2.24611847 C5.07015539,2.25453054 5.06051269,2.26154132 5.04949336,2.2699534 C4.45584082,2.70038984 3.9007549,3.18410347 3.39387828,3.7168904 C3.39250165,3.7182917 3.3897463,3.72109644 3.38699094,3.72390118 C3.22170518,3.89775859 3.06192803,4.07582205 2.90628287,4.25949284 C2.90077425,4.26650362 2.89388691,4.2735144 2.8883783,4.28192647 C2.41455757,4.84415567 1.99032279,5.45125213 1.62256128,6.09480163 C1.61705267,6.10461714 1.61292068,6.11302922 1.60741207,6.12144129 C1.15011929,6.9276314 0.77960243,7.78990343 0.511012805,8.69704273 C0.508257447,8.70685824 0.506880819,8.71667376 0.502748832,8.72648927 C0.444898921,8.92558292 0.392557624,9.12607787 0.342971685,9.32937755 C0.331952354,9.37704741 0.320933023,9.42752201 0.309913692,9.4765953 C0.272723713,9.64203851 0.238289092,9.80748171 0.207986457,9.97572965 C0.195590498,10.0416271 0.183194539,10.1075245 0.173551836,10.173422 C0.147381188,10.3276505 0.125342526,10.4832804 0.104682594,10.6403115 C0.0950398908,10.7132197 0.085397188,10.7861279 0.0771332152,10.8590362 C0.0606052696,11.018872 0.0468305804,11.1787079 0.0358112494,11.3399451 C0.0303026348,11.4072438 0.0234152902,11.475946 0.020659932,11.5446482 C0.00826397281,11.7717828 -5.68434189e-14,12.0003208 -5.68434189e-14,12.2316615 C-5.68434189e-14,12.4630021 0.00826397281,12.6929415 0.020659932,12.9214796 C0.0234152902,12.9901817 0.0303026348,13.0574805 0.0358112494,13.1261827 C0.0468305804,13.2888233 0.0606052696,13.4514639 0.0785119452,13.612701 C0.086775918,13.6842058 0.0964186207,13.7557106 0.104682594,13.8272154 C0.126721256,13.9884526 0.148759917,14.1496897 0.176307194,14.3095256 C0.185949897,14.371217 0.196969228,14.4343097 0.209365187,14.4960011 C0.24242318,14.6740646 0.278234429,14.8507246 0.319556395,15.0259833 C0.327820368,15.0666424 0.337463071,15.1059002 0.347105774,15.1465593 C1.63082946,20.4926519 6.36627924,24.461911 12.0149337,24.461911 L29.2363763,24.461911 L29.2363763,83.1665707 C29.2363763,83.7666564 29.2804537,84.354124 29.3630976,84.931776 C29.4801761,85.7547903 29.6757645,86.5525683 29.9457329,87.3138912 C29.9471095,87.3152925 29.9471095,87.3166938 29.9471095,87.3180951 C30.0118468,87.4989611 30.080716,87.6784259 30.1523406,87.8564893 C30.1564726,87.8663048 30.1606046,87.8761204 30.1647366,87.8859359 C30.2349824,88.0569885 30.3093603,88.2252365 30.3878722,88.3934844 C30.3947596,88.407506 30.4002682,88.4229288 30.4071556,88.4383517 C30.4856675,88.6037949 30.5683114,88.7678368 30.6537086,88.9304774 C30.660596,88.944499 30.6674833,88.9599218 30.6757473,88.9739434 C30.7666552,89.1478008 30.8630717,89.3174522 30.9636202,89.4871035 C30.9649968,89.4885048 30.9649968,89.4899061 30.9663735,89.4927109 C31.1109993,89.7352683 31.2652657,89.9694137 31.4236641,90.2007544 C31.4512114,90.2386109 31.4773821,90.2778686 31.5049293,90.3157251 C32.5393446,91.7738768 33.8795395,92.9922758 35.4332294,93.8685693 C35.4373614,93.8713741 35.44287,93.8741788 35.447002,93.8769836 C35.7238556,94.0326134 36.0075965,94.1756251 36.2968482,94.3088213 C36.3188869,94.3200381 36.3395468,94.3298536 36.3615855,94.3396691 C36.6535904,94.471464 36.951106,94.5934434 37.255509,94.7028047 C38.3835875,95.1080028 39.5874226,95.3449529 40.8408437,95.3870154 C40.9772055,95.3926228 41.1135674,95.3982301 41.2513059,95.3982301 C41.4827055,95.3982301 41.7127285,95.389818 41.9427515,95.3771999 C42.0143762,95.3729939 42.0860008,95.3645818 42.1576254,95.3603757 C42.3160238,95.3477576 42.4744222,95.3337361 42.6300673,95.3155085 C42.7099559,95.305693 42.7898445,95.2958775 42.8683564,95.2846606 C43.0212462,95.2636305 43.1713807,95.2397955 43.3215151,95.2131559 C43.395893,95.2005377 43.4702708,95.1879196 43.5432721,95.1724968 C43.7140685,95.1388463 43.8834863,95.1009898 44.0515274,95.0603308 C44.0997367,95.049114 44.1493227,95.0378971 44.197532,95.0266803 C44.419291,94.9691949 44.6382947,94.9061022 44.8545451,94.8374001 C44.8655645,94.8345953 44.8738284,94.8303893 44.8848478,94.8275845 C45.0873235,94.7616871 45.2884226,94.6901823 45.4867664,94.6144715 C45.5349757,94.5948426 45.5818063,94.5752137 45.6300156,94.5569861 C45.792546,94.4910887 45.9550764,94.4223865 46.1148535,94.3508817 C46.1630628,94.3284481 46.2126488,94.3060144 46.2608581,94.2835808 C46.4288992,94.2050652 46.5928083,94.1223436 46.7567175,94.0368173 C46.7897755,94.0199931 46.8228335,94.003169 46.8558915,93.9863448 C47.4633187,93.6596623 48.0404433,93.2797005 48.5803779,92.8562748 C48.5913972,92.8464593 48.6037932,92.8366438 48.6148125,92.8282317 C48.785609,92.6936321 48.9522735,92.5534251 49.1161826,92.4090121 C49.1272019,92.3991966 49.1382213,92.3907845 49.1492406,92.380969 C50.3186411,91.3406335 51.2869425,90.0745647 51.9907862,88.64866 C51.9907862,88.6472587 51.9907862,88.64866 51.9907862,88.6472587 C52.3916057,87.8368626 52.7056493,86.9759918 52.9218997,86.074462 C52.9315424,86.0295948 52.9411851,85.9847275 52.9522044,85.9398602 C52.9907711,85.7702089 53.0265823,85.5991562 53.0568849,85.4267022 C53.0692809,85.362206 53.0803002,85.2977099 53.0913196,85.2346172 C53.1174902,85.0775861 53.1409055,84.9191515 53.1601888,84.7593156 C53.1698315,84.6878108 53.1794742,84.6163061 53.1877382,84.5433978 C53.2042661,84.383562 53.2180408,84.2223248 53.2304368,84.0596842 C53.2345688,83.9923854 53.2414561,83.9250867 53.2455881,83.8563845 C53.257984,83.6292499 53.2648714,83.3993105 53.2648714,83.1679699 L53.2648714,24.4619067 L70.486314,24.4619067 C70.7783189,24.4619067 71.0661918,24.4464839 71.3526881,24.426855 C74.0702678,24.2291626 76.5371646,23.1131142 78.4558607,21.3801559 C78.4641247,21.3731451 78.4723886,21.3661343 78.479276,21.3591235 C78.5991078,21.2511636 78.7148076,21.140401 78.8291308,21.028235 C78.8511695,21.0072048 78.8732081,20.9861746 78.8938681,20.9651444 C78.9985486,20.8613905 79.1004758,20.754834 79.2010243,20.6482774 L79.201018,20.6482924 Z" id="路径"></path>
                    <path d="M162.087785,0 C155.413948,0 150.004787,5.47656477 150.004787,12.230434 L150.004787,35.4686811 L117.668949,35.4686811 L117.668949,12.230434 C117.668949,5.47656477 112.258403,0 105.585951,0 C98.912114,0 93.5029528,5.47656477 93.5029528,12.230434 L93.5029528,83.1677961 C93.5029528,89.9216653 98.912114,95.3982301 105.585951,95.3982301 C112.258403,95.3982301 117.668949,89.9216653 117.668949,83.1677961 L117.668949,59.929549 L150.004787,59.929549 L150.004787,83.1677961 C150.004787,85.9916061 150.953642,88.5896794 152.541069,90.6605676 C152.542453,90.6605676 152.542453,90.6605676 152.542453,90.6605676 C153.435899,91.8257043 154.531584,92.823992 155.778253,93.5993478 C156.340639,93.9484691 156.934884,94.2499177 157.552679,94.5036957 C158.789652,95.0112518 160.126357,95.3197112 161.529554,95.3828049 C161.713784,95.3926205 161.900786,95.3982301 162.089171,95.3982301 C164.586666,95.3982301 166.908241,94.629883 168.833652,93.316125 C169.116229,93.1240393 169.389112,92.9165305 169.653683,92.7006095 C169.661994,92.6935986 169.671691,92.6865878 169.680002,92.6795769 C169.947342,92.4622524 170.204988,92.2309084 170.451551,91.9897487 C172.744038,89.7646319 174.172167,86.6351651 174.172167,83.1663927 L174.172167,12.230434 C174.170783,5.47656477 168.761621,0 162.087785,0 Z" id="路径"></path>
                    <path d="M248.153686,70.93736 L213.215034,70.93736 L213.215034,59.929549 L241.247274,59.929549 C243.677024,59.929549 245.939108,59.2130807 247.839316,57.9834469 C251.205196,55.807402 253.435145,52.0161505 253.435145,47.699115 C253.435145,40.9452458 247.979037,35.4686811 241.247277,35.4686811 L213.215037,35.4686811 L213.215037,24.4608701 L248.153688,24.4608701 C252.261487,24.4608701 255.892839,22.4194268 258.100432,19.2955696 C258.590852,18.6001318 259.005824,17.8500126 259.345345,17.060635 L259.345345,17.0592337 C259.448739,16.8208787 259.542352,16.5769142 259.628979,16.3301471 C259.628979,16.3287458 259.630375,16.3287458 259.630375,16.3273444 C260.085865,15.0458339 260.341555,13.6703836 260.341555,12.2304361 C260.341555,8.66071301 258.815801,5.44712207 256.384655,3.21218962 C254.216184,1.2184169 251.326753,0 248.153686,0 L201.027166,0 C194.296802,0 188.839297,5.47656477 188.839297,12.230434 L188.839297,83.1677961 C188.839297,89.9216653 194.296802,95.3982301 201.027166,95.3982301 L248.153686,95.3982301 C254.885447,95.3982301 260.341555,89.9216653 260.341555,83.1677961 C260.341555,76.4125256 254.885447,70.9373621 248.153686,70.9373621 L248.153686,70.93736 Z" id="路径"></path>
                    <path d="M422.899756,0.791977476 C416.552839,-1.59440445 409.463784,1.59398124 407.068377,7.91326583 L402.087449,21.0481768 L392.924062,45.2092372 L391.924214,47.84379 C391.756634,47.3796939 391.593278,46.9268148 391.428515,46.4739357 C389.473884,41.0730298 387.788226,36.398415 386.332112,32.3575497 C376.667393,5.52548258 377.07578,6.34290957 375.325345,4.29864141 C370.062771,-1.85939991 360.514936,-1.18498814 356.014215,5.06979872 C355.514292,5.76383986 355.073513,6.52378007 354.711596,7.35382549 L350.531955,16.9175791 L343.444307,33.1315118 L343.375303,33.2899503 L337.360729,47.0502007 L336.915727,48.0681275 L336.045438,50.0619198 L333.630316,43.3893065 L330.677246,35.2290606 L320.853399,8.08712752 C319.850736,5.31937309 317.949618,3.1320897 315.593642,1.73419166 C312.543404,-0.0773266911 308.734127,-0.563857015 305.131861,0.727481882 C298.749739,3.01711827 295.440386,10.0262379 297.740034,16.3805751 C297.772423,16.4689083 297.803404,16.5544368 297.834386,16.64277 C299.006038,19.8774254 300.122768,22.9648594 301.19021,25.9162891 C301.628172,27.1249023 302.056274,28.3068751 302.475928,29.4692185 C302.543522,29.6542973 302.60971,29.8393761 302.677304,30.0230514 C303.101182,31.1966119 303.518021,32.3491417 303.925001,33.4764325 C304.467172,34.9752822 304.993853,36.4306671 305.50645,37.8495958 C305.59376,38.0893566 305.679663,38.3277139 305.765565,38.5660711 C305.900757,38.9390314 306.035948,39.3133929 306.168323,39.6807435 C306.430254,40.4042298 306.687962,41.116499 306.941444,41.8203559 C307.508963,43.3893108 308.056766,44.9063886 308.586262,46.3729905 C308.935504,47.3362354 309.276296,48.2784496 309.607233,49.1982296 C309.787487,49.6973783 309.964923,50.1881148 310.140953,50.6746451 C310.150811,50.7026868 310.16067,50.7307284 310.171936,50.7587701 C310.349373,51.2509079 310.525403,51.7374382 310.697207,52.2169576 C310.812684,52.532431 310.921118,52.835286 311.033778,53.145152 C311.691423,54.9664861 312.31668,56.6966822 312.908138,58.3357423 C313.182744,59.0970838 313.451717,59.8401995 313.713649,60.5636858 C313.769978,60.7221242 313.823491,60.8707469 313.87982,61.0263806 C313.957273,61.239501 314.033317,61.451218 314.109361,61.6615336 C314.571262,62.9388506 315.01204,64.1600843 315.431693,65.319625 C315.641521,65.9000961 315.845715,66.4679487 316.045684,67.0189746 C316.055543,67.0498211 316.066809,67.0806676 316.078075,67.111514 C316.087934,67.1367509 316.096383,67.1619877 316.106241,67.1872246 C316.389296,67.9724038 316.662494,68.7295392 316.927243,69.4586329 C316.944141,69.5063039 316.961039,69.553975 316.977937,69.601646 C317.05539,69.8161678 317.132844,70.0292882 317.208888,70.2396038 C317.393366,70.7499697 317.575027,71.2505219 317.74824,71.7342474 C318.632611,74.1767126 319.390242,76.2714566 320.045071,78.0731614 C320.080277,78.1699069 320.115483,78.265249 320.149281,78.360591 C320.187304,78.4643475 320.225327,78.568104 320.26194,78.670457 C320.271799,78.6970973 320.281658,78.7237376 320.291516,78.750378 C320.387275,79.0139742 320.480219,79.2719609 320.571754,79.5229366 C320.585837,79.5621953 320.601328,79.6014541 320.615411,79.6393115 C320.653434,79.7444693 320.690047,79.8468223 320.726661,79.9491753 C320.742151,79.9884341 320.756234,80.0290942 320.770318,80.0683529 C320.867486,80.3333505 320.961838,80.5927406 321.053372,80.8437163 C321.077312,80.9096154 321.101252,80.9741131 321.125191,81.0386109 C321.195603,81.2349046 321.266015,81.4241895 321.33361,81.6106696 C321.339242,81.6288977 321.346283,81.6457222 321.351915,81.6639503 C321.391346,81.7691081 321.429369,81.8756672 321.467391,81.9794237 C321.478658,82.0088689 321.489924,82.0397153 321.50119,82.0691604 C321.573009,82.2654542 321.643421,82.4561404 321.711016,82.6412192 C321.719465,82.6664561 321.729323,82.6930964 321.739182,82.7197367 C321.774388,82.8164822 321.809594,82.9118243 321.8448,83.005765 C321.850432,83.0211882 321.856064,83.0380128 321.861696,83.0548374 C321.899719,83.1543877 321.934924,83.2525346 321.971538,83.3492801 C321.97717,83.3689095 321.984211,83.3857341 321.991253,83.4039621 C322.023642,83.4922953 322.056031,83.5792251 322.087012,83.6647536 C322.126442,83.7727162 322.165873,83.877874 322.203896,83.9816305 C322.225018,84.0377138 322.244734,84.0923958 322.265856,84.1484791 C322.285571,84.2017597 322.305287,84.2550404 322.325002,84.3069175 C322.348942,84.3728166 322.372881,84.4387157 322.396821,84.5018099 C322.409495,84.5340577 322.420761,84.5663055 322.433434,84.5985533 C322.465823,84.6882879 322.498212,84.7766211 322.530601,84.8621496 C322.560175,84.9420706 322.589749,85.020588 322.617913,85.0977042 C322.623545,85.1117261 322.627769,85.1243445 322.633401,85.1383664 C322.664383,85.2210901 322.693957,85.3024124 322.723531,85.3809298 C322.734797,85.4131776 322.74747,85.4440241 322.758736,85.4762719 C322.785493,85.5463771 322.81084,85.6164823 322.836188,85.6837827 C322.844637,85.7076182 322.854495,85.7314538 322.862944,85.7552893 C322.895333,85.8394164 322.924907,85.9207387 322.955888,86.002061 C322.967155,86.0315061 322.977013,86.0595478 322.988279,86.0889929 C323.010812,86.147881 323.033344,86.2053678 323.054467,86.2628546 C323.062916,86.2880914 323.072774,86.3119269 323.082633,86.3371638 C323.106573,86.4016615 323.130513,86.4661593 323.154452,86.5278522 C323.160084,86.5432754 323.165716,86.5586986 323.171348,86.5727205 C323.200922,86.6484332 323.227679,86.7227446 323.255843,86.7942511 C323.261475,86.8096744 323.267107,86.8236963 323.272739,86.8377182 C323.295272,86.8966063 323.316394,86.9526896 323.337517,87.0073716 C323.344558,87.0241961 323.3516,87.0410207 323.357232,87.0578453 C323.378355,87.1139286 323.400887,87.1686105 323.420602,87.2218912 C323.426234,87.2345096 323.430459,87.2485315 323.436091,87.2611499 C323.461438,87.3242442 323.485378,87.3873385 323.50791,87.4476279 C323.510727,87.4546389 323.513544,87.4616498 323.516361,87.4686608 C323.537484,87.5219414 323.558607,87.5738186 323.578322,87.6242944 C323.582546,87.6355115 323.588178,87.6467286 323.592403,87.659347 C323.637467,87.7729171 323.679715,87.8808797 323.720553,87.9818314 C323.72196,87.9860375 323.724777,87.9902437 323.726185,87.9958512 C323.744492,88.0407195 323.761391,88.0841844 323.779698,88.126248 C323.782515,88.1332589 323.785332,88.1416712 323.78815,88.1486821 C323.82758,88.2440242 323.864193,88.3337588 323.899399,88.4164824 C323.91489,88.4557412 323.931788,88.4935986 323.947279,88.5300525 C323.950096,88.53566 323.951503,88.5412675 323.95432,88.5468749 C323.986709,88.6225876 324.01769,88.6940942 324.047264,88.7585919 C324.047264,88.7599932 324.047264,88.7599932 324.047264,88.7613946 C324.062755,88.7936424 324.075429,88.8244888 324.089512,88.853934 C324.090919,88.8553353 324.090919,88.8567366 324.092327,88.8595414 C324.120491,88.9212344 324.145838,88.9773177 324.171185,89.0291948 C324.172593,89.0305962 324.172593,89.0319975 324.174,89.0333988 C324.185266,89.0572344 324.196533,89.0810699 324.207799,89.1021006 C324.209206,89.1049054 324.210614,89.1077102 324.212021,89.1091115 C324.234553,89.1567826 324.257086,89.2016509 324.279618,89.242311 L324.279618,89.2437123 C324.290884,89.2633417 324.300743,89.2829711 324.312009,89.3011991 C324.312009,89.3026005 324.312009,89.3026005 324.312009,89.3040018 C324.333132,89.3418592 324.354254,89.3769118 324.372562,89.4091596 C324.373969,89.4105609 324.373969,89.4119623 324.375377,89.4119623 C324.383826,89.4273855 324.392275,89.4414074 324.400724,89.4554293 C324.402132,89.4568306 324.403539,89.4596354 324.404946,89.4624402 C324.423254,89.4918854 324.441562,89.519927 324.45987,89.5465674 C324.461277,89.5493722 324.462685,89.5507735 324.464092,89.5521748 C324.472541,89.5647933 324.479583,89.5774117 324.488032,89.5886288 C324.489439,89.5900301 324.490847,89.5914314 324.490847,89.5928328 C324.509155,89.6194731 324.527462,89.6461134 324.547177,89.6727537 C324.555627,89.6839708 324.564076,89.6965892 324.572525,89.7078063 C324.575342,89.7106111 324.576749,89.713416 324.578157,89.7162208 C324.602096,89.7484686 324.626036,89.7807164 324.649976,89.8143676 C324.651383,89.8143676 324.651383,89.815769 324.652791,89.8171703 C324.658423,89.8255826 324.665464,89.8353983 324.672506,89.8438106 C324.690814,89.8704509 324.710529,89.8970913 324.730244,89.9265364 C324.733061,89.9293412 324.735878,89.932146 324.737286,89.9349508 C324.745735,89.9475692 324.755594,89.9615911 324.764043,89.9742096 C324.76686,89.9770144 324.768267,89.9798192 324.771084,89.982624 C324.78235,89.9994485 324.793616,90.0162731 324.80629,90.0345011 C326.294796,92.2231859 328.290265,93.7206321 330.480071,94.5646994 C336.279182,96.8010552 343.449915,94.4343026 346.235404,88.0519238 L364.902969,45.3396233 C368.831945,56.1905075 371.759665,64.3872095 373.995943,70.6293779 C375.177452,73.9243228 376.166034,76.676654 377.00675,78.9817136 C381.10894,90.2406106 381.676459,90.8785685 383.960616,92.7041087 C383.981739,92.7209333 384.004271,92.7363565 384.025394,92.7531811 C390.517359,97.8778723 400.207425,95.2531331 403.14782,87.4910842 L414.713656,56.9953182 L418.480685,47.0614092 L430.050746,16.5530247 C432.44897,10.2365449 429.246643,3.17835298 422.899726,0.791971058 L422.899756,0.791977476 Z" id="路径"></path>
                    <path d="M499.328285,70.93736 L464.389633,70.93736 L464.389633,59.929549 L492.421873,59.929549 C494.851623,59.929549 497.113707,59.2130807 499.013915,57.9834469 C502.379795,55.807402 504.609744,52.0161505 504.609744,47.699115 C504.609744,40.9452458 499.153636,35.4686811 492.421875,35.4686811 L464.389635,35.4686811 L464.389635,24.4608701 L499.328287,24.4608701 C503.436086,24.4608701 507.067437,22.4194268 509.275031,19.2955696 C509.765451,18.6001318 510.180423,17.8500126 510.519944,17.060635 L510.519944,17.0592337 C510.623338,16.8208787 510.716951,16.5769142 510.803577,16.3301471 C510.803577,16.3287458 510.804974,16.3287458 510.804974,16.3273444 C511.260464,15.0458339 511.516154,13.6703836 511.516154,12.2304361 C511.516154,8.66071301 509.9904,5.44712207 507.559254,3.21218962 C505.390782,1.2184169 502.501351,0 499.328285,0 L452.201764,0 C445.4714,0 440.013896,5.47656477 440.013896,12.230434 L440.013896,83.1677961 C440.013896,89.9216653 445.4714,95.3982301 452.201764,95.3982301 L499.328285,95.3982301 C506.060045,95.3982301 511.516154,89.9216653 511.516154,83.1677961 C511.516154,76.4125256 506.060045,70.9373621 499.328285,70.9373621 L499.328285,70.93736 Z" id="路径"></path>
                    <path d="M601.100009,47.6998082 C604.714513,42.7311647 606.851113,36.5960689 606.851113,29.9632671 C606.851113,28.3299527 606.716883,26.7288835 606.467797,25.1656684 C606.161975,23.2561624 605.673491,21.4069407 605.028636,19.6348288 C605.018949,19.6081907 605.009261,19.5801514 604.999573,19.5535133 C604.825214,19.0810442 604.639784,18.6141822 604.444667,18.1529293 C603.489841,15.9083483 602.277626,13.8011616 600.835699,11.8776348 L600.834316,11.8762335 C596.974877,6.72673465 591.511605,2.87547526 585.20421,1.09495177 C582.678761,0.381340727 580.019083,0 577.273609,0 L570.061205,0.00280457367 L569.958803,0.00280457367 L536.416692,0.0140207291 C530.23384,0.0168253027 525.140045,4.73030605 524.435688,10.8037162 C524.409395,11.0294363 524.388639,11.2579609 524.3748,11.4878867 C524.3748,11.5005041 524.373417,11.5145248 524.372034,11.5271422 C524.358195,11.7654796 524.349892,12.003817 524.349892,12.244959 L524.349892,83.1686951 C524.349892,89.9220679 529.755044,95.3982301 536.420845,95.3982301 L577.277763,95.3982301 C593.58455,95.3982301 606.852498,81.9573782 606.852498,65.4349565 C606.852498,62.5258328 606.440124,59.7120432 605.67211,57.0496685 C604.690991,53.6442422 603.127288,50.4883695 601.100011,47.6998167 L601.100009,47.6998082 Z M548.491791,24.4702882 L552.677817,24.4674836 L553.901103,24.4674836 L558.143857,24.4660824 L562.087709,24.4646812 L577.277765,24.4590742 C578.949405,24.4590742 580.446685,25.2301672 581.444412,26.4372784 C581.725324,26.7793636 581.963339,27.1578998 582.157072,27.5616728 C582.507175,28.2893046 582.709212,29.1024577 582.709212,29.9632778 C582.709212,30.7974599 582.519631,31.5867794 582.188901,32.297588 C582.029764,32.6410745 581.834646,32.9663366 581.611853,33.2663618 C581.604934,33.2761767 581.598014,33.2845883 581.591095,33.2944032 C581.517753,33.3911407 581.441643,33.4864748 581.362765,33.5776031 C581.359997,33.5818089 581.355846,33.5860147 581.353078,33.5902205 C581.200858,33.7640677 581.038953,33.9295012 580.865977,34.0837207 C580.849372,34.0977414 580.83415,34.1145646 580.817545,34.1285853 C580.744203,34.1930776 580.668093,34.2547654 580.5906,34.3150499 C580.546318,34.3486983 580.502035,34.3823468 580.456369,34.4159953 C580.38441,34.4692715 580.312452,34.5211443 580.23911,34.5702147 C580.153315,34.6276967 580.064751,34.6809729 579.974804,34.7342491 C579.894543,34.780515 579.812899,34.8239762 579.72987,34.8674375 C579.646841,34.9094975 579.562428,34.9515576 579.476633,34.9908131 C579.418513,35.0174512 579.35901,35.0426859 579.299508,35.0679207 C579.19849,35.1085773 579.096088,35.1464316 578.992302,35.1814813 C578.948019,35.1969032 578.905122,35.2137264 578.860839,35.2263438 C578.714156,35.2726096 578.564704,35.3104639 578.412484,35.3441123 C578.369587,35.3525239 578.325304,35.3609355 578.281021,35.3693471 C578.16063,35.3917794 578.038855,35.4100059 577.917079,35.4254279 C577.868645,35.4310349 577.821596,35.4366419 577.774547,35.4408477 C577.609874,35.4562696 577.4452,35.4660845 577.277758,35.4660845 C577.144912,35.4660845 577.012066,35.4688891 576.879219,35.4730949 L566.319384,35.4773007 L561.536946,35.4801053 L552.081388,35.4843111 L548.491791,35.4857123 L548.491791,24.4702882 Z M577.277756,70.9391688 L548.491791,70.9391688 L548.491791,59.9447843 L577.277756,59.9321669 C580.273699,59.9321669 582.709201,62.4010667 582.709201,65.4349672 C582.709201,65.4952517 582.702282,65.5527337 582.700898,65.6116169 C582.608184,68.5642019 580.214196,70.9391688 577.277756,70.9391688 Z" id="形状"></path>
                    <path d="M712.800715,56.8019081 C712.127471,52.4970473 710.594919,48.3757853 708.312424,44.7051783 C708.141983,44.4339516 707.967281,44.1655073 707.788318,43.8984532 C707.004287,42.7189635 706.142137,41.5895467 705.204708,40.5199378 C704.993076,40.277919 704.780024,40.0386826 704.559871,39.8036188 C703.6963,38.8786656 702.775918,38.0010028 701.7973,37.1803677 C701.247627,36.7199774 700.652502,36.2595871 700.02329,35.8033693 C700.02329,35.8033693 700.02329,35.8033693 700.021871,35.8033693 C699.699452,35.5683055 699.362831,35.3360241 699.016266,35.1051328 C699.013425,35.1037426 699.012005,35.1023525 699.009164,35.0995701 C698.66118,34.8686788 698.301833,34.6391798 697.931123,34.412461 C697.931123,34.412461 697.931123,34.412461 697.929703,34.4110709 C696.213926,33.3595445 694.258111,32.3664361 692.021067,31.5138086 C692.327862,31.2314544 692.621875,30.9602277 692.914465,30.6903911 C693.074965,30.5429552 693.235465,30.3955193 693.391704,30.2508657 C695.042144,28.730604 696.461069,27.4314961 697.675465,26.3187694 C697.813238,26.1921963 697.946751,26.0697957 698.080264,25.9473951 C698.408363,25.6455682 698.725099,25.356259 699.023373,25.0822499 C699.065984,25.0433046 699.112855,25.0001868 699.155466,24.9612416 C704.535734,20.0276896 705.110974,19.4282085 706.092433,17.4628543 C707.794005,14.0648663 707.69174,10.391477 706.305484,7.2925334 C704.440571,3.12537116 700.249133,0 694.96119,0 L655.911645,0 C649.069844,0 643.521976,5.43288754 643.521976,12.1328926 C643.521976,18.8342879 649.069844,24.2671754 655.911645,24.2671754 L663.740586,24.2671754 C653.660398,33.5890436 651.007194,35.0564523 650.08255,40.1694305 C648.694873,47.9056618 655.019669,54.7364127 662.797477,54.398423 C663.125577,54.384513 663.456517,54.362258 663.790299,54.3219226 C664.063005,54.28854 664.578591,54.1911768 665.270298,54.0646037 C665.986151,53.9324678 666.892332,53.7683417 667.936287,53.6056056 C673.072255,52.8002707 681.432405,52.049181 685.677817,55.6099072 C688.500041,57.9786238 688.437546,61.5755128 688.394935,62.2737494 C688.392094,62.322432 688.384992,62.3725048 688.380731,62.4211875 C688.001499,66.5647024 682.050254,71.1324448 674.472713,71.1324448 C671.1278,71.1324448 668.008721,69.5468102 666.334135,66.9958848 C662.634136,61.3585336 654.968534,59.7256065 649.211876,63.3503132 C643.456637,66.9736298 641.789152,74.4803621 645.489151,80.1177134 C646.64247,81.873039 647.949187,83.4962287 649.386576,84.9803277 C651.33813,86.9971447 653.533985,88.7538626 655.917324,90.219879 C661.343041,93.558059 667.741696,95.3982301 674.472711,95.3982301 C682.101385,95.3982301 689.524107,93.4189681 695.860266,89.7608789 C697.380035,88.8846062 698.83873,87.9123605 700.220725,86.8469242 C708.015579,80.8326359 712.601872,72.6068042 713.133082,63.6855184 C713.133082,63.6855184 713.133082,63.6841282 713.133082,63.6827381 C713.270855,61.3654843 713.152966,59.0579679 712.800722,56.8019145 L712.800715,56.8019081 Z" id="路径"></path>
                </g>
            </g>
        </g>
    </g>
</svg>