<?xml version="1.0" encoding="UTF-8"?>
<svg width="1024px" height="1024px" viewBox="0 0 1024 1024" version="1.1" xmlns="http://www.w3.org/2000/svg" xmlns:xlink="http://www.w3.org/1999/xlink">
    <!-- Generator: Sketch 63.1 (92452) - https://sketch.com -->
    <title>编组 4备份 9</title>
    <desc>Created with Sketch.</desc>
    <g id="页面-1" stroke="none" stroke-width="1" fill="none" fill-rule="evenodd">
        <g id="编组-4备份-9">
            <rect id="矩形" fill="#3F9CFF" x="0" y="0" width="1024" height="1024" rx="160"></rect>
            <g id="编组" transform="translate(284.444444, 189.629630)" fill="#FFFFFF">
                <g id="编组-2" transform="translate(2.735780, 9.187449)">
                    <path d="M67.4021075,4.85833429e-12 C30.2147378,4.85833429e-12 -8.75276501e-12,30.0691246 -8.75276501e-12,67.077278 C-8.75276501e-12,104.085431 30.2147378,134.154556 67.4021075,134.154556 C104.589477,134.154556 134.804215,104.085431 134.804215,67.077278 C134.804215,30.0691246 104.589477,4.85833429e-12 67.4021075,4.85833429e-12 Z" id="路径"></path>
                    <path d="M261.795534,46.5349769 L261.795534,217.023059 C261.795534,219.432444 263.829219,221.456327 266.347114,221.456327 L437.176593,221.456327 C438.822909,221.456327 439.888172,220.107071 439.888172,218.757816 L439.888172,159.39057 C439.888172,95.7828061 387.980802,44.0292165 323.968168,44.0292165 L264.313429,44.0292165 C262.763955,44.0292165 261.60185,45.1857213 261.795534,46.5349769 Z" id="路径"></path>
                    <path d="M261.597524,293.258708 L261.597524,401.488282 C261.597524,420.37786 276.995419,435.990675 296.266998,435.990675 L405.020686,435.990675 C424.001739,435.990675 439.690161,420.666987 439.690161,401.488282 L439.690161,293.258708 C439.690161,274.36913 424.292266,258.756315 405.020686,258.756315 L296.266998,258.756315 C277.285945,258.756315 261.597524,274.36913 261.597524,293.258708 Z" id="路径"></path>
                    <path d="M45.830584,263.47871 L45.830584,608.984517 C45.830584,611.393902 47.8642683,613.514161 50.3821631,613.514161 L219.371642,613.514161 C221.889537,613.514161 223.923221,611.393902 223.923221,608.984517 L223.923221,263.285959 C223.923221,260.780199 221.889537,258.756315 219.371642,258.756315 L50.3821631,258.756315 C47.8642683,258.756315 45.830584,260.780199 45.830584,263.47871 Z" id="路径"></path>
                </g>
            </g>
        </g>
    </g>
</svg>